<svg width="542" height="437" viewBox="0 0 542 437" fill="none" xmlns="http://www.w3.org/2000/svg">
<path d="M36.5 254.545H417.847L298.104 374.288C283.903 388.487 283.903 411.512 298.104 425.713C305.205 432.812 314.512 436.363 323.818 436.363C333.125 436.363 342.432 432.812 349.53 425.711L531.348 243.893C545.549 229.694 545.549 206.669 531.348 192.467L349.53 10.6491C335.331 -3.5497 312.305 -3.5497 298.104 10.6491C283.903 24.8479 283.903 47.8733 298.104 62.0746L417.847 181.818H36.5C16.4176 181.818 0.136368 198.099 0.136368 218.181C0.136368 238.264 16.4176 254.545 36.5 254.545Z" fill="white"/>
</svg>
