<svg width="18" height="18" viewBox="0 0 18 18" fill="none" xmlns="http://www.w3.org/2000/svg"><path d="M6.66222 3.23111C6.50222 3.8 6.42222 4.39556 6.42222 5C6.42222 8.62667 9.37333 11.5778 13 11.5778C13.6044 11.5778 14.2 11.4978 14.7689 11.3378C13.8444 13.6133 11.6044 15.2222 9 15.2222C5.56889 15.2222 2.77778 12.4311 2.77778 9C2.77778 6.39556 4.38667 4.15556 6.66222 3.23111ZM9 1C4.58222 1 1 4.58222 1 9C1 13.4178 4.58222 17 9 17C13.4178 17 17 13.4178 17 9C17 8.59111 16.9644 8.18222 16.9111 7.79111C16.04 9.00889 14.6178 9.8 13 9.8C10.3511 9.8 8.2 7.64889 8.2 5C8.2 3.39111 8.99111 1.96 10.2089 1.08889C9.81778 1.03556 9.40889 1 9 1Z"></path></svg>